<svg xmlns="http://www.w3.org/2000/svg" width="420" height="200" viewBox="0 0 420 200" font-family="Segoe UI, sans-serif">
  <rect x="10.0" y="30" width="60" height="60" rx="8" fill="#ef444415" stroke="#ef4444" stroke-width="2"/>
  <text x="40.0" y="72" text-anchor="middle" font-size="30" font-weight="bold" fill="#ef4444">B</text>
  <text x="40.0" y="108" text-anchor="middle" font-size="11" fill="#ef4444">Brackets</text>
  <rect x="78.0" y="30" width="60" height="60" rx="8" fill="#ef444415" stroke="#ef4444" stroke-width="2"/>
  <text x="108.0" y="72" text-anchor="middle" font-size="30" font-weight="bold" fill="#ef4444">I</text>
  <text x="108.0" y="108" text-anchor="middle" font-size="11" fill="#ef4444">Indices</text>
  <rect x="146.0" y="30" width="60" height="60" rx="8" fill="#3b82f615" stroke="#3b82f6" stroke-width="2"/>
  <text x="176.0" y="72" text-anchor="middle" font-size="30" font-weight="bold" fill="#3b82f6">M</text>
  <text x="176.0" y="108" text-anchor="middle" font-size="11" fill="#3b82f6">Multiply</text>
  <rect x="214.0" y="30" width="60" height="60" rx="8" fill="#3b82f615" stroke="#3b82f6" stroke-width="2"/>
  <text x="244.0" y="72" text-anchor="middle" font-size="30" font-weight="bold" fill="#3b82f6">D</text>
  <text x="244.0" y="108" text-anchor="middle" font-size="11" fill="#3b82f6">Divide</text>
  <rect x="282.0" y="30" width="60" height="60" rx="8" fill="#22c55e15" stroke="#22c55e" stroke-width="2"/>
  <text x="312.0" y="72" text-anchor="middle" font-size="30" font-weight="bold" fill="#22c55e">A</text>
  <text x="312.0" y="108" text-anchor="middle" font-size="11" fill="#22c55e">Add</text>
  <rect x="350.0" y="30" width="60" height="60" rx="8" fill="#22c55e15" stroke="#22c55e" stroke-width="2"/>
  <text x="380.0" y="72" text-anchor="middle" font-size="30" font-weight="bold" fill="#22c55e">S</text>
  <text x="380.0" y="108" text-anchor="middle" font-size="11" fill="#22c55e">Subtract</text>
  <line x1="40.0" y1="135" x2="380.0" y2="135" stroke="#1a1a1a" stroke-width="1.5"/>
  <polygon points="380.0,135 372.0,131 372.0,139" fill="#1a1a1a"/>
  <text x="210.0" y="155" text-anchor="middle" font-size="11" fill="#666">highest priority → lowest priority</text>
  <text x="210.0" y="180" text-anchor="middle" font-size="11" fill="#666">M/D same priority (left to right) · A/S same priority (left to right)</text>
</svg>
