<svg xmlns="http://www.w3.org/2000/svg" width="350" height="250" viewBox="0 0 350 250" font-family="Segoe UI, sans-serif">
  <line x1="20" y1="50" x2="330" y2="50" stroke="#1a1a1a" stroke-width="2"/>
  <line x1="20" y1="130" x2="330" y2="130" stroke="#1a1a1a" stroke-width="2"/>
  <line x1="20" y1="210" x2="330" y2="210" stroke="#1a1a1a" stroke-width="2"/>
  <line x1="80" y1="30" x2="160" y2="230" stroke="#3b82f6" stroke-width="2"/>
  <line x1="220" y1="30" x2="300" y2="230" stroke="#ef4444" stroke-width="2"/>
  <circle cx="96" cy="50" r="4" fill="#3b82f6"/>
  <circle cx="128" cy="130" r="4" fill="#3b82f6"/>
  <circle cx="160" cy="210" r="4" fill="#3b82f6"/>
  <circle cx="236" cy="50" r="4" fill="#ef4444"/>
  <circle cx="268" cy="130" r="4" fill="#ef4444"/>
  <circle cx="300" cy="210" r="4" fill="#ef4444"/>
  <line x1="108" y1="85" x2="116" y2="95" stroke="#3b82f6" stroke-width="2"/>
  <line x1="140" y1="165" x2="148" y2="175" stroke="#3b82f6" stroke-width="2"/>
  <line x1="248" y1="85" x2="256" y2="95" stroke="#ef4444" stroke-width="2"/>
  <line x1="280" y1="165" x2="288" y2="175" stroke="#ef4444" stroke-width="2"/>
  <text x="340" y="45" text-anchor="middle" font-size="14" fill="#00a6a0" font-style="italic">∥</text>
  <text x="340" y="125" text-anchor="middle" font-size="14" fill="#00a6a0" font-style="italic">∥</text>
  <text x="340" y="205" text-anchor="middle" font-size="14" fill="#00a6a0" font-style="italic">∥</text>
  <text x="175" y="245" text-anchor="middle" font-size="12" fill="#1a1a1a" font-style="normal">Equal segments on one ⟹ equal on any other</text>
</svg>
